{"title":"The Gallows {2015} HC HDRiP X264 AC3-MRG","uid":12197625,"size":906303815,"categoryP":"video","categoryS":"movies","magnet":"?xt=urn:btih:9a4d23178ea1f73a581fdda872bc52ad30da1a0b&amp;dn=The+Gallows+%7B2015%7D+HC+HDRiP+X264+AC3-MRG&amp;tr=udp%3A%2F%2Ftracker.openbittorrent.com%3A80&amp;tr=udp%3A%2F%2Fopen.demonii.com%3A1337&amp;tr=udp%3A%2F%2Ftracker.coppersurfer.tk%3A6969&amp;tr=udp%3A%2F%2Fexodus.desync.com%3A6969","seeders":294,"leechers":17,"uploader":"SaM","files":5,"time":1438774347,"description":"The Gallows {2015} HC HDRiP X264 AC3-MRG.mkv\n\nSource : VICTRY..ty\nFormat : Matroska\nFormat version : Version 4 / Version 2\nFile size : 864 MiB\nDuration : 1h 17mn\nOverall bit rate : 1 561 Kbps\nWriting application : Lavf56.25.101\nWriting library : Lavf56.25.101\n\nVideo\nID : 1\nFormat : MPEG-4 Visual\nFormat profile : Simple@L3\nFormat settings, BVOP : No\nFormat settings, QPel : No\nFormat settings, GMC : No warppoints\nFormat settings, Matrix : Default (H.263)\nCodec ID : V_MPEG4/ISO/ASP\nCodec ID/Info : Advanced Simple Profile\nDuration : 1h 17mn\nBit rate : 1 146 Kbps\nWidth : 672 pixels\nHeight : 376 pixels\nDisplay aspect ratio : 16:9\nFrame rate mode : Constant\nFrame rate : 25.000 fps\nColor space : YUV\nChroma subsampling : 4:2:0\nBit depth : 8 bits\nScan type : Progressive\nCompression mode : Lossy\nBits/(Pixel*Frame) : 0.181\nStream size : 634 MiB (73%)\nWriting library : ZJMedia MPEG Encoder\nDefault : Yes\nForced : No\n\nAudio\nID : 2\nFormat : AC-3\nFormat/Info : Audio Coding 3\nMode extension : CM (complete main)\nFormat settings, Endianness : Big\nCodec ID : A_AC3\nDuration : 1h 17mn\nBit rate mode : Constant\nBit rate : 384 Kbps\nChannel(s) : 2 channels\nChannel positions : Front: L R\nSampling rate : 48.0 KHz\nCompression mode : Lossy\nStream size : 213 MiB (25%)\nLanguage : unknown\nDefault : Yes\nForced : No\n &lt;a href=&quot;\nhttp://extraimago.com/image/S18&quot; rel=&quot;nofollow&quot; target=&quot;_NEW&quot;&gt;\nhttp://extraimago.com/image/S18&lt;/a&gt;","torrent":{"xt":"urn:btih:9a4d23178ea1f73a581fdda872bc52ad30da1a0b","amp;dn":"The+Gallows+%7B2015%7D+HC+HDRiP+X264+AC3-MRG","amp;tr":["udp%3A%2F%2Ftracker.openbittorrent.com%3A80","udp%3A%2F%2Fopen.demonii.com%3A1337","udp%3A%2F%2Ftracker.coppersurfer.tk%3A6969","udp%3A%2F%2Fexodus.desync.com%3A6969"],"infoHash":"9a4d23178ea1f73a581fdda872bc52ad30da1a0b","infoHashBuffer":{"type":"Buffer","data":[154,77,35,23,142,161,247,58,88,31,221,168,114,188,82,173,48,218,26,11]},"announce":[],"urlList":[]}}